# File created by Blade
# Date/Time:  Wed Jan 21 14:28:11 2015
# Frame Rate: 120.000 fps
#------------------------------------------------------
:FULLY-SPECIFIED
:DEGREES
765
root 18.740886 35.458509 -21.459551 -170.689080 -3.532679 -178.891014
Spine -18.169716 -0.418428 0.708814
Head 6.211639 -4.449356 1.843012
LeftShoulder -11.571583 -36.303161 23.410354
LeftArm 4.960313 8.449613 -5.538535
LeftForeArm 16.754038 0.000000 -2.102228
LeftHand -8.078152 -0.000000 -8.305645
LeftHandThumb1 -26.253704 0.000000 33.147579
RightShoulder -11.639812 -0.042789 -13.574845
RightArm 8.580925 34.897233 6.739792
RightForeArm -40.505010 -0.000000 4.635139
RightHand -7.327617 0.000000 13.796000
RightHandThumb1 -24.326973 -0.000000 -32.862282
LeftUpLeg -0.615699 8.509872 1.899036
LeftLeg -7.259242 -0.000000 0.000000
LeftFoot -19.754763 27.060670 -12.001520
LeftToeBase 27.265856 -0.000000 -0.000000
RightUpLeg -1.757103 -12.999764 0.007138
RightLeg -4.308285 -0.000000 0.000000
RightFoot -20.084237 -22.507935 16.203804
RightToeBase 25.330816 -0.000000 -0.000000
766
root 18.740310 35.458282 -21.456457 -170.691127 -3.543523 -178.895769
Spine -18.184300 -0.418844 0.708787
Head 6.297687 -4.370625 1.821181
LeftShoulder -11.562151 -36.315417 23.378957
LeftArm 4.965971 8.436195 -5.538061
LeftForeArm 16.780033 -0.000000 -2.083464
LeftHand -8.099223 -0.000000 -8.348129
LeftHandThumb1 -26.253704 0.000000 33.147579
RightShoulder -11.659515 -0.099971 -13.580172
RightArm 8.649420 34.845967 6.808401
RightForeArm -40.400608 -0.000000 4.602467
RightHand -7.356123 -0.000000 13.780162
RightHandThumb1 -24.326973 -0.000000 -32.862282
LeftUpLeg -0.622642 8.491826 1.901533
LeftLeg -7.241286 -0.000000 0.000000
LeftFoot -19.729463 27.033546 -11.940694
LeftToeBase 27.270828 -0.000000 -0.000000
RightUpLeg -1.757504 -13.008708 0.003004
RightLeg -4.310191 -0.000000 0.000000
RightFoot -20.086316 -22.507787 16.192673
RightToeBase 25.315735 -0.000000 -0.000000
767
root 18.738358 35.458299 -21.454462 -170.695673 -3.552947 -178.898537
Spine -18.193554 -0.431335 0.718865
Head 6.354948 -4.323295 1.797138
LeftShoulder -11.583314 -36.329348 23.373375
LeftArm 4.968165 8.451845 -5.554401
LeftForeArm 16.784190 -0.000000 -2.068390
LeftHand -8.107779 -0.000000 -8.353781
LeftHandThumb1 -26.253704 0.000000 33.147579
RightShoulder -11.624123 -0.070966 -13.596426
RightArm 8.624296 34.973216 6.865779
RightForeArm -40.508902 -0.000000 4.676805
RightHand -7.308374 0.000000 13.811626
RightHandThumb1 -24.326973 -0.000000 -32.862282
LeftUpLeg -0.622446 8.501213 1.890231
LeftLeg -7.252923 -0.000000 0.000000
LeftFoot -19.764218 27.043491 -11.989257
LeftToeBase 27.350095 -0.000000 -0.000000
RightUpLeg -1.754549 -13.018059 -0.000559
RightLeg -4.312020 -0.000000 0.000000
RightFoot -20.084817 -22.521138 16.201079
RightToeBase 25.313358 -0.000000 -0.000000
768
root 18.737013 35.458184 -21.452098 -170.700571 -3.572696 -178.901660
Spine -18.204993 -0.445437 0.730503
Head 6.424115 -4.290722 1.758949
LeftShoulder -11.586733 -36.341617 23.354020
LeftArm 4.963554 8.478646 -5.567353
LeftForeArm 16.759924 -0.000000 -2.046154
LeftHand -8.130705 0.000000 -8.376708
LeftHandThumb1 -26.253704 0.000000 33.147579
RightShoulder -11.608318 -0.071049 -13.603362
RightArm 8.634193 34.965813 6.878366
RightForeArm -40.497064 -0.000000 4.652875
RightHand -7.295827 -0.000000 13.867433
RightHandThumb1 -24.326973 -0.000000 -32.862282
LeftUpLeg -0.624381 8.497394 1.886858
LeftLeg -7.254571 -0.000000 0.000000
LeftFoot -19.747353 27.031509 -11.977923
LeftToeBase 27.287436 -0.000000 -0.000000
RightUpLeg -1.749749 -13.030595 -0.004349
RightLeg -4.311123 -0.000000 0.000000
RightFoot -20.077557 -22.518560 16.270386
RightToeBase 25.201402 -0.000000 -0.000000
769
root 18.736255 35.458211 -21.448884 -170.704123 -3.574828 -178.902990
Spine -18.215842 -0.444574 0.735898
Head 6.491880 -4.255398 1.733567
LeftShoulder -11.591302 -36.329427 23.328193
LeftArm 4.981870 8.482656 -5.568374
LeftForeArm 16.744891 -0.000000 -2.052236
LeftHand -8.116854 -0.000000 -8.391448
LeftHandThumb1 -26.253704 0.000000 33.147579
RightShoulder -11.585019 -0.087097 -13.598171
RightArm 8.619454 34.926141 6.877147
RightForeArm -40.466986 -0.000000 4.673328
RightHand -7.300363 -0.000000 13.912166
RightHandThumb1 -24.326973 -0.000000 -32.862282
LeftUpLeg -0.631459 8.508035 1.884897
LeftLeg -7.241915 -0.000000 0.000000
LeftFoot -19.744880 27.007260 -11.968842
LeftToeBase 27.319939 -0.000000 -0.000000
RightUpLeg -1.749650 -12.971837 -0.019738
RightLeg -4.301601 -0.000000 0.000000
RightFoot -20.100156 -22.518325 16.290161
RightToeBase 25.204638 -0.000000 -0.000000
770
root 18.734516 35.457736 -21.446534 -170.714017 -3.590284 -178.912800
Spine -18.221537 -0.464648 0.741678
Head 6.556742 -4.222153 1.693940
LeftShoulder -11.593094 -36.328310 23.311636
LeftArm 4.968480 8.492635 -5.579403
LeftForeArm 16.734783 -0.000000 -2.039890
LeftHand -8.132389 0.000000 -8.402352
LeftHandThumb1 -26.253704 0.000000 33.147579
RightShoulder -11.560901 -0.060257 -13.623054
RightArm 8.618741 34.886511 6.910379
RightForeArm -40.492864 -0.000000 4.683577
RightHand -7.314254 -0.000000 13.966694
RightHandThumb1 -24.326973 -0.000000 -32.862282
LeftUpLeg -0.625640 8.493950 1.875626
LeftLeg -7.245339 -0.000000 0.000000
LeftFoot -19.738961 27.006707 -11.960582
LeftToeBase 27.321184 -0.000000 -0.000000
RightUpLeg -1.738529 -13.024918 -0.023749
RightLeg -4.314877 -0.000000 0.000000
RightFoot -20.094269 -22.529949 16.193848
RightToeBase 25.313678 -0.000000 -0.000000
